<mxfile host="app.diagrams.net" modified="2021-06-09T15:44:35.074Z" agent="5.0 (Windows)" etag="5-YZlvEfRp7v6-zVv3NU" version="14.6.12" type="github">
  <diagram id="bIzQT7OTNvvly5WHTtxJ" name="Page-1">
    <mxGraphModel dx="1038" dy="536" grid="1" gridSize="10" guides="1" tooltips="1" connect="1" arrows="1" fold="1" page="1" pageScale="1" pageWidth="850" pageHeight="1100" math="0" shadow="0">
      <root>
        <mxCell id="0" />
        <mxCell id="1" parent="0" />
        <mxCell id="ZDk2f_s6jxiF1c_y5Mfk-8" style="edgeStyle=orthogonalEdgeStyle;rounded=0;orthogonalLoop=1;jettySize=auto;html=1;entryX=0;entryY=0.5;entryDx=0;entryDy=0;" parent="1" source="ZDk2f_s6jxiF1c_y5Mfk-1" target="ZDk2f_s6jxiF1c_y5Mfk-5" edge="1">
          <mxGeometry relative="1" as="geometry" />
        </mxCell>
        <mxCell id="ZDk2f_s6jxiF1c_y5Mfk-15" style="edgeStyle=orthogonalEdgeStyle;rounded=0;orthogonalLoop=1;jettySize=auto;html=1;endArrow=classicThin;endFill=1;entryX=0;entryY=0.5;entryDx=0;entryDy=0;exitX=0;exitY=0.75;exitDx=0;exitDy=0;" parent="1" source="ZDk2f_s6jxiF1c_y5Mfk-7" target="ZDk2f_s6jxiF1c_y5Mfk-3" edge="1">
          <mxGeometry relative="1" as="geometry">
            <mxPoint x="135" y="200" as="targetPoint" />
            <Array as="points">
              <mxPoint x="130" y="430" />
              <mxPoint x="130" y="140" />
            </Array>
          </mxGeometry>
        </mxCell>
        <mxCell id="ZDk2f_s6jxiF1c_y5Mfk-1" value="主界面" style="whiteSpace=wrap;html=1;aspect=fixed;" parent="1" vertex="1">
          <mxGeometry x="20" y="345" width="80" height="80" as="geometry" />
        </mxCell>
        <mxCell id="ZDk2f_s6jxiF1c_y5Mfk-21" style="edgeStyle=orthogonalEdgeStyle;rounded=0;orthogonalLoop=1;jettySize=auto;html=1;entryX=0;entryY=0.5;entryDx=0;entryDy=0;endArrow=classicThin;endFill=1;" parent="1" source="ZDk2f_s6jxiF1c_y5Mfk-2" target="ZDk2f_s6jxiF1c_y5Mfk-20" edge="1">
          <mxGeometry relative="1" as="geometry" />
        </mxCell>
        <mxCell id="ZDk2f_s6jxiF1c_y5Mfk-22" value="&lt;font style=&quot;font-size: 14px&quot;&gt;点击进入&lt;/font&gt;" style="edgeLabel;html=1;align=center;verticalAlign=middle;resizable=0;points=[];" parent="ZDk2f_s6jxiF1c_y5Mfk-21" vertex="1" connectable="0">
          <mxGeometry x="-0.2133" y="-2" relative="1" as="geometry">
            <mxPoint as="offset" />
          </mxGeometry>
        </mxCell>
        <mxCell id="ZDk2f_s6jxiF1c_y5Mfk-2" value="单词分类" style="rounded=0;whiteSpace=wrap;html=1;" parent="1" vertex="1">
          <mxGeometry x="130" y="190" width="100" height="40" as="geometry" />
        </mxCell>
        <mxCell id="ZDk2f_s6jxiF1c_y5Mfk-18" style="edgeStyle=orthogonalEdgeStyle;rounded=0;orthogonalLoop=1;jettySize=auto;html=1;endArrow=classicThin;endFill=1;" parent="1" source="ZDk2f_s6jxiF1c_y5Mfk-3" target="ZDk2f_s6jxiF1c_y5Mfk-17" edge="1">
          <mxGeometry relative="1" as="geometry" />
        </mxCell>
        <mxCell id="ZDk2f_s6jxiF1c_y5Mfk-19" value="&lt;font style=&quot;font-size: 14px&quot;&gt;点击进入&lt;/font&gt;" style="edgeLabel;html=1;align=center;verticalAlign=middle;resizable=0;points=[];" parent="ZDk2f_s6jxiF1c_y5Mfk-18" vertex="1" connectable="0">
          <mxGeometry x="-0.2667" y="4" relative="1" as="geometry">
            <mxPoint as="offset" />
          </mxGeometry>
        </mxCell>
        <mxCell id="ZDk2f_s6jxiF1c_y5Mfk-3" value="&lt;font style=&quot;font-size: 16px&quot;&gt;字符表&lt;/font&gt;" style="rounded=0;whiteSpace=wrap;html=1;" parent="1" vertex="1">
          <mxGeometry x="130" y="120" width="100" height="40" as="geometry" />
        </mxCell>
        <mxCell id="ZDk2f_s6jxiF1c_y5Mfk-24" style="edgeStyle=orthogonalEdgeStyle;rounded=0;orthogonalLoop=1;jettySize=auto;html=1;entryX=0;entryY=0.5;entryDx=0;entryDy=0;endArrow=classicThin;endFill=1;" parent="1" source="ZDk2f_s6jxiF1c_y5Mfk-4" target="ZDk2f_s6jxiF1c_y5Mfk-23" edge="1">
          <mxGeometry relative="1" as="geometry" />
        </mxCell>
        <mxCell id="ZDk2f_s6jxiF1c_y5Mfk-25" value="&lt;font style=&quot;font-size: 14px&quot;&gt;点击进入&lt;/font&gt;" style="edgeLabel;html=1;align=center;verticalAlign=middle;resizable=0;points=[];" parent="ZDk2f_s6jxiF1c_y5Mfk-24" vertex="1" connectable="0">
          <mxGeometry x="-0.1867" y="-1" relative="1" as="geometry">
            <mxPoint as="offset" />
          </mxGeometry>
        </mxCell>
        <mxCell id="ZDk2f_s6jxiF1c_y5Mfk-4" value="词法规则" style="rounded=0;whiteSpace=wrap;html=1;" parent="1" vertex="1">
          <mxGeometry x="130" y="250" width="100" height="40" as="geometry" />
        </mxCell>
        <mxCell id="ZDk2f_s6jxiF1c_y5Mfk-28" style="edgeStyle=orthogonalEdgeStyle;rounded=0;orthogonalLoop=1;jettySize=auto;html=1;entryX=0;entryY=0.5;entryDx=0;entryDy=0;endArrow=classicThin;endFill=1;" parent="1" source="ZDk2f_s6jxiF1c_y5Mfk-5" target="ZDk2f_s6jxiF1c_y5Mfk-26" edge="1">
          <mxGeometry relative="1" as="geometry" />
        </mxCell>
        <mxCell id="ZDk2f_s6jxiF1c_y5Mfk-31" value="&lt;font style=&quot;font-size: 14px&quot;&gt;点击进入&lt;/font&gt;" style="edgeLabel;html=1;align=center;verticalAlign=middle;resizable=0;points=[];" parent="ZDk2f_s6jxiF1c_y5Mfk-28" vertex="1" connectable="0">
          <mxGeometry x="-0.2267" y="-2" relative="1" as="geometry">
            <mxPoint as="offset" />
          </mxGeometry>
        </mxCell>
        <mxCell id="ZDk2f_s6jxiF1c_y5Mfk-5" value="关键字表" style="rounded=0;whiteSpace=wrap;html=1;" parent="1" vertex="1">
          <mxGeometry x="130" y="365" width="100" height="40" as="geometry" />
        </mxCell>
        <mxCell id="ZDk2f_s6jxiF1c_y5Mfk-83" style="edgeStyle=orthogonalEdgeStyle;rounded=0;orthogonalLoop=1;jettySize=auto;html=1;entryX=0;entryY=0.5;entryDx=0;entryDy=0;endArrow=classicThin;endFill=1;" parent="1" source="ZDk2f_s6jxiF1c_y5Mfk-6" target="ZDk2f_s6jxiF1c_y5Mfk-82" edge="1">
          <mxGeometry relative="1" as="geometry" />
        </mxCell>
        <mxCell id="ZDk2f_s6jxiF1c_y5Mfk-88" value="&lt;font style=&quot;font-size: 14px&quot;&gt;点击进入&lt;/font&gt;" style="edgeLabel;html=1;align=center;verticalAlign=middle;resizable=0;points=[];" parent="ZDk2f_s6jxiF1c_y5Mfk-83" vertex="1" connectable="0">
          <mxGeometry x="-0.3524" y="-5" relative="1" as="geometry">
            <mxPoint as="offset" />
          </mxGeometry>
        </mxCell>
        <mxCell id="ZDk2f_s6jxiF1c_y5Mfk-6" value="单字符分界符" style="rounded=0;whiteSpace=wrap;html=1;" parent="1" vertex="1">
          <mxGeometry x="130" y="480" width="100" height="40" as="geometry" />
        </mxCell>
        <mxCell id="ZDk2f_s6jxiF1c_y5Mfk-116" style="edgeStyle=orthogonalEdgeStyle;rounded=0;orthogonalLoop=1;jettySize=auto;html=1;entryX=0;entryY=0.5;entryDx=0;entryDy=0;endArrow=classicThin;endFill=1;" parent="1" source="ZDk2f_s6jxiF1c_y5Mfk-7" target="ZDk2f_s6jxiF1c_y5Mfk-114" edge="1">
          <mxGeometry relative="1" as="geometry" />
        </mxCell>
        <mxCell id="ZDk2f_s6jxiF1c_y5Mfk-117" value="&lt;font style=&quot;font-size: 14px&quot;&gt;点击导入&lt;/font&gt;" style="edgeLabel;html=1;align=center;verticalAlign=middle;resizable=0;points=[];" parent="ZDk2f_s6jxiF1c_y5Mfk-116" vertex="1" connectable="0">
          <mxGeometry x="-0.3091" relative="1" as="geometry">
            <mxPoint as="offset" />
          </mxGeometry>
        </mxCell>
        <mxCell id="ZDk2f_s6jxiF1c_y5Mfk-7" value="词法分析" style="rounded=0;whiteSpace=wrap;html=1;" parent="1" vertex="1">
          <mxGeometry x="130" y="590" width="100" height="40" as="geometry" />
        </mxCell>
        <mxCell id="ZDk2f_s6jxiF1c_y5Mfk-17" value="显示字符表" style="rounded=0;whiteSpace=wrap;html=1;" parent="1" vertex="1">
          <mxGeometry x="320" y="120" width="100" height="40" as="geometry" />
        </mxCell>
        <mxCell id="ZDk2f_s6jxiF1c_y5Mfk-20" value="显示单次分类" style="rounded=0;whiteSpace=wrap;html=1;" parent="1" vertex="1">
          <mxGeometry x="320" y="180" width="100" height="40" as="geometry" />
        </mxCell>
        <mxCell id="ZDk2f_s6jxiF1c_y5Mfk-23" value="显示词法规则" style="rounded=0;whiteSpace=wrap;html=1;" parent="1" vertex="1">
          <mxGeometry x="320" y="235" width="100" height="40" as="geometry" />
        </mxCell>
        <mxCell id="ZDk2f_s6jxiF1c_y5Mfk-73" style="edgeStyle=orthogonalEdgeStyle;rounded=0;orthogonalLoop=1;jettySize=auto;html=1;entryX=0;entryY=0.75;entryDx=0;entryDy=0;endArrow=classicThin;endFill=1;" parent="1" source="ZDk2f_s6jxiF1c_y5Mfk-26" target="ZDk2f_s6jxiF1c_y5Mfk-72" edge="1">
          <mxGeometry relative="1" as="geometry">
            <Array as="points">
              <mxPoint x="420" y="368" />
              <mxPoint x="520" y="368" />
            </Array>
          </mxGeometry>
        </mxCell>
        <mxCell id="ZDk2f_s6jxiF1c_y5Mfk-26" value="显示关键字表" style="rounded=0;whiteSpace=wrap;html=1;" parent="1" vertex="1">
          <mxGeometry x="320" y="300" width="100" height="40" as="geometry" />
        </mxCell>
        <mxCell id="ZDk2f_s6jxiF1c_y5Mfk-32" value="添加成功，显示所在ID" style="rounded=0;whiteSpace=wrap;html=1;" parent="1" vertex="1">
          <mxGeometry x="760" y="150" width="80" height="30" as="geometry" />
        </mxCell>
        <mxCell id="ZDk2f_s6jxiF1c_y5Mfk-34" value="显示关键字已存在和ID" style="rounded=0;whiteSpace=wrap;html=1;" parent="1" vertex="1">
          <mxGeometry x="760" y="195" width="80" height="30" as="geometry" />
        </mxCell>
        <mxCell id="ZDk2f_s6jxiF1c_y5Mfk-38" value="" style="endArrow=classic;html=1;" parent="1" edge="1">
          <mxGeometry width="50" height="50" relative="1" as="geometry">
            <mxPoint x="430" y="319.5" as="sourcePoint" />
            <mxPoint x="520" y="320" as="targetPoint" />
            <Array as="points">
              <mxPoint x="420" y="319.5" />
            </Array>
          </mxGeometry>
        </mxCell>
        <mxCell id="ZDk2f_s6jxiF1c_y5Mfk-46" value="&lt;font style=&quot;font-size: 14px&quot;&gt;输入关键字&lt;br&gt;&lt;/font&gt;" style="edgeLabel;html=1;align=center;verticalAlign=middle;resizable=0;points=[];" parent="ZDk2f_s6jxiF1c_y5Mfk-38" vertex="1" connectable="0">
          <mxGeometry x="-0.14" y="1" relative="1" as="geometry">
            <mxPoint x="3" y="-9" as="offset" />
          </mxGeometry>
        </mxCell>
        <mxCell id="ZDk2f_s6jxiF1c_y5Mfk-51" style="edgeStyle=orthogonalEdgeStyle;rounded=0;orthogonalLoop=1;jettySize=auto;html=1;entryX=0;entryY=0.75;entryDx=0;entryDy=0;endArrow=classicThin;endFill=1;" parent="1" source="ZDk2f_s6jxiF1c_y5Mfk-40" target="ZDk2f_s6jxiF1c_y5Mfk-32" edge="1">
          <mxGeometry relative="1" as="geometry">
            <Array as="points">
              <mxPoint x="728" y="175" />
              <mxPoint x="728" y="173" />
            </Array>
          </mxGeometry>
        </mxCell>
        <mxCell id="ZDk2f_s6jxiF1c_y5Mfk-84" style="edgeStyle=orthogonalEdgeStyle;rounded=0;orthogonalLoop=1;jettySize=auto;html=1;entryX=0;entryY=0.75;entryDx=0;entryDy=0;endArrow=classicThin;endFill=1;" parent="1" source="ZDk2f_s6jxiF1c_y5Mfk-40" target="ZDk2f_s6jxiF1c_y5Mfk-34" edge="1">
          <mxGeometry relative="1" as="geometry">
            <Array as="points">
              <mxPoint x="655" y="218" />
              <mxPoint x="680" y="218" />
            </Array>
          </mxGeometry>
        </mxCell>
        <mxCell id="ZDk2f_s6jxiF1c_y5Mfk-40" value="判断是否存在?" style="rhombus;whiteSpace=wrap;html=1;" parent="1" vertex="1">
          <mxGeometry x="615" y="135" width="80" height="80" as="geometry" />
        </mxCell>
        <mxCell id="ZDk2f_s6jxiF1c_y5Mfk-45" value="Y" style="text;html=1;strokeColor=none;fillColor=none;align=center;verticalAlign=middle;whiteSpace=wrap;rounded=0;" parent="1" vertex="1">
          <mxGeometry x="670" y="195" width="40" height="20" as="geometry" />
        </mxCell>
        <mxCell id="ZDk2f_s6jxiF1c_y5Mfk-49" style="edgeStyle=orthogonalEdgeStyle;rounded=0;orthogonalLoop=1;jettySize=auto;html=1;entryX=0;entryY=0.5;entryDx=0;entryDy=0;endArrow=classicThin;endFill=1;" parent="1" source="ZDk2f_s6jxiF1c_y5Mfk-47" target="ZDk2f_s6jxiF1c_y5Mfk-40" edge="1">
          <mxGeometry relative="1" as="geometry" />
        </mxCell>
        <mxCell id="ZDk2f_s6jxiF1c_y5Mfk-56" style="edgeStyle=orthogonalEdgeStyle;rounded=0;orthogonalLoop=1;jettySize=auto;html=1;exitX=0;exitY=0.5;exitDx=0;exitDy=0;entryX=0;entryY=0.5;entryDx=0;entryDy=0;endArrow=classicThin;endFill=1;" parent="1" source="ZDk2f_s6jxiF1c_y5Mfk-47" target="ZDk2f_s6jxiF1c_y5Mfk-48" edge="1">
          <mxGeometry relative="1" as="geometry">
            <Array as="points">
              <mxPoint x="510" y="320" />
              <mxPoint x="520" y="320" />
              <mxPoint x="520" y="330" />
              <mxPoint x="510" y="330" />
            </Array>
          </mxGeometry>
        </mxCell>
        <mxCell id="ZDk2f_s6jxiF1c_y5Mfk-47" value="添加关键字" style="rounded=0;whiteSpace=wrap;html=1;" parent="1" vertex="1">
          <mxGeometry x="510" y="160" width="60" height="30" as="geometry" />
        </mxCell>
        <mxCell id="ZDk2f_s6jxiF1c_y5Mfk-60" style="edgeStyle=orthogonalEdgeStyle;rounded=0;orthogonalLoop=1;jettySize=auto;html=1;entryX=0;entryY=0.5;entryDx=0;entryDy=0;endArrow=classicThin;endFill=1;" parent="1" source="ZDk2f_s6jxiF1c_y5Mfk-48" target="ZDk2f_s6jxiF1c_y5Mfk-59" edge="1">
          <mxGeometry relative="1" as="geometry" />
        </mxCell>
        <mxCell id="hr_gG3zSbtiE6pb-FCmn-3" style="edgeStyle=orthogonalEdgeStyle;rounded=0;orthogonalLoop=1;jettySize=auto;html=1;exitX=0.5;exitY=1;exitDx=0;exitDy=0;endArrow=classicThin;endFill=1;" edge="1" parent="1" source="ZDk2f_s6jxiF1c_y5Mfk-48">
          <mxGeometry relative="1" as="geometry">
            <mxPoint x="545" y="270" as="targetPoint" />
          </mxGeometry>
        </mxCell>
        <mxCell id="ZDk2f_s6jxiF1c_y5Mfk-48" value="查询关键字" style="rounded=0;whiteSpace=wrap;html=1;" parent="1" vertex="1">
          <mxGeometry x="510" y="235" width="70" height="30" as="geometry" />
        </mxCell>
        <mxCell id="ZDk2f_s6jxiF1c_y5Mfk-57" value="显示关键字存在和ID" style="rounded=0;whiteSpace=wrap;html=1;" parent="1" vertex="1">
          <mxGeometry x="760" y="250" width="80" height="30" as="geometry" />
        </mxCell>
        <mxCell id="ZDk2f_s6jxiF1c_y5Mfk-63" style="edgeStyle=orthogonalEdgeStyle;rounded=0;orthogonalLoop=1;jettySize=auto;html=1;entryX=0;entryY=0.75;entryDx=0;entryDy=0;endArrow=classicThin;endFill=1;" parent="1" source="ZDk2f_s6jxiF1c_y5Mfk-59" target="ZDk2f_s6jxiF1c_y5Mfk-62" edge="1">
          <mxGeometry relative="1" as="geometry">
            <Array as="points">
              <mxPoint x="655" y="328" />
              <mxPoint x="760" y="328" />
            </Array>
          </mxGeometry>
        </mxCell>
        <mxCell id="hr_gG3zSbtiE6pb-FCmn-7" style="edgeStyle=orthogonalEdgeStyle;rounded=0;orthogonalLoop=1;jettySize=auto;html=1;endArrow=classicThin;endFill=1;" edge="1" parent="1" source="ZDk2f_s6jxiF1c_y5Mfk-59" target="ZDk2f_s6jxiF1c_y5Mfk-57">
          <mxGeometry relative="1" as="geometry">
            <Array as="points">
              <mxPoint x="710" y="265" />
              <mxPoint x="710" y="265" />
            </Array>
          </mxGeometry>
        </mxCell>
        <mxCell id="ZDk2f_s6jxiF1c_y5Mfk-59" value="判断是否存在?" style="rhombus;whiteSpace=wrap;html=1;" parent="1" vertex="1">
          <mxGeometry x="620" y="225" width="70" height="75" as="geometry" />
        </mxCell>
        <mxCell id="ZDk2f_s6jxiF1c_y5Mfk-62" value="显示关键字不存在" style="rounded=0;whiteSpace=wrap;html=1;" parent="1" vertex="1">
          <mxGeometry x="760" y="305" width="80" height="30" as="geometry" />
        </mxCell>
        <mxCell id="ZDk2f_s6jxiF1c_y5Mfk-69" value="N" style="text;html=1;strokeColor=none;fillColor=none;align=center;verticalAlign=middle;whiteSpace=wrap;rounded=0;" parent="1" vertex="1">
          <mxGeometry x="655" y="310" width="40" height="20" as="geometry" />
        </mxCell>
        <mxCell id="ZDk2f_s6jxiF1c_y5Mfk-72" value="删除关键字" style="rounded=0;whiteSpace=wrap;html=1;" parent="1" vertex="1">
          <mxGeometry x="530" y="345" width="70" height="30" as="geometry" />
        </mxCell>
        <mxCell id="ZDk2f_s6jxiF1c_y5Mfk-74" value="输入关键字ID" style="text;html=1;strokeColor=none;fillColor=none;align=center;verticalAlign=middle;whiteSpace=wrap;rounded=0;" parent="1" vertex="1">
          <mxGeometry x="425" y="350" width="40" height="20" as="geometry" />
        </mxCell>
        <mxCell id="ZDk2f_s6jxiF1c_y5Mfk-75" style="edgeStyle=orthogonalEdgeStyle;rounded=0;orthogonalLoop=1;jettySize=auto;html=1;exitX=0.5;exitY=1;exitDx=0;exitDy=0;endArrow=classicThin;endFill=1;" parent="1" source="ZDk2f_s6jxiF1c_y5Mfk-5" target="ZDk2f_s6jxiF1c_y5Mfk-5" edge="1">
          <mxGeometry relative="1" as="geometry" />
        </mxCell>
        <mxCell id="ZDk2f_s6jxiF1c_y5Mfk-81" value="N" style="text;html=1;strokeColor=none;fillColor=none;align=center;verticalAlign=middle;whiteSpace=wrap;rounded=0;" parent="1" vertex="1">
          <mxGeometry x="695" y="155" width="40" height="20" as="geometry" />
        </mxCell>
        <mxCell id="ZDk2f_s6jxiF1c_y5Mfk-89" style="edgeStyle=orthogonalEdgeStyle;rounded=0;orthogonalLoop=1;jettySize=auto;html=1;entryX=0;entryY=0.5;entryDx=0;entryDy=0;endArrow=classicThin;endFill=1;" parent="1" source="ZDk2f_s6jxiF1c_y5Mfk-82" target="ZDk2f_s6jxiF1c_y5Mfk-85" edge="1">
          <mxGeometry relative="1" as="geometry">
            <Array as="points">
              <mxPoint x="500" y="485" />
            </Array>
          </mxGeometry>
        </mxCell>
        <mxCell id="ZDk2f_s6jxiF1c_y5Mfk-90" value="&lt;font style=&quot;font-size: 14px&quot;&gt;输入字符&lt;/font&gt;" style="edgeLabel;html=1;align=center;verticalAlign=middle;resizable=0;points=[];" parent="ZDk2f_s6jxiF1c_y5Mfk-89" vertex="1" connectable="0">
          <mxGeometry x="-0.6308" y="-2" relative="1" as="geometry">
            <mxPoint x="6" y="-2" as="offset" />
          </mxGeometry>
        </mxCell>
        <mxCell id="ZDk2f_s6jxiF1c_y5Mfk-112" style="edgeStyle=orthogonalEdgeStyle;rounded=0;orthogonalLoop=1;jettySize=auto;html=1;entryX=0;entryY=0.5;entryDx=0;entryDy=0;endArrow=classicThin;endFill=1;" parent="1" source="ZDk2f_s6jxiF1c_y5Mfk-82" target="ZDk2f_s6jxiF1c_y5Mfk-87" edge="1">
          <mxGeometry relative="1" as="geometry">
            <Array as="points">
              <mxPoint x="410" y="535" />
            </Array>
          </mxGeometry>
        </mxCell>
        <mxCell id="ZDk2f_s6jxiF1c_y5Mfk-82" value="显示单字符分界表" style="rounded=0;whiteSpace=wrap;html=1;" parent="1" vertex="1">
          <mxGeometry x="310" y="465" width="100" height="40" as="geometry" />
        </mxCell>
        <mxCell id="ZDk2f_s6jxiF1c_y5Mfk-95" style="edgeStyle=orthogonalEdgeStyle;rounded=0;orthogonalLoop=1;jettySize=auto;html=1;endArrow=classicThin;endFill=1;" parent="1" source="ZDk2f_s6jxiF1c_y5Mfk-85" edge="1">
          <mxGeometry relative="1" as="geometry">
            <mxPoint x="610" y="410" as="targetPoint" />
          </mxGeometry>
        </mxCell>
        <mxCell id="ZDk2f_s6jxiF1c_y5Mfk-85" value="添加字符" style="rounded=0;whiteSpace=wrap;html=1;" parent="1" vertex="1">
          <mxGeometry x="500" y="405" width="60" height="30" as="geometry" />
        </mxCell>
        <mxCell id="ZDk2f_s6jxiF1c_y5Mfk-96" style="edgeStyle=orthogonalEdgeStyle;rounded=0;orthogonalLoop=1;jettySize=auto;html=1;entryX=0;entryY=0.5;entryDx=0;entryDy=0;endArrow=classicThin;endFill=1;" parent="1" source="ZDk2f_s6jxiF1c_y5Mfk-86" target="ZDk2f_s6jxiF1c_y5Mfk-94" edge="1">
          <mxGeometry relative="1" as="geometry" />
        </mxCell>
        <mxCell id="ZDk2f_s6jxiF1c_y5Mfk-86" value="查询字符" style="rounded=0;whiteSpace=wrap;html=1;" parent="1" vertex="1">
          <mxGeometry x="500" y="465" width="70" height="30" as="geometry" />
        </mxCell>
        <mxCell id="ZDk2f_s6jxiF1c_y5Mfk-87" value="删除字符" style="rounded=0;whiteSpace=wrap;html=1;" parent="1" vertex="1">
          <mxGeometry x="500" y="520" width="70" height="30" as="geometry" />
        </mxCell>
        <mxCell id="ZDk2f_s6jxiF1c_y5Mfk-98" style="edgeStyle=orthogonalEdgeStyle;rounded=0;orthogonalLoop=1;jettySize=auto;html=1;entryX=0;entryY=0.5;entryDx=0;entryDy=0;endArrow=classicThin;endFill=1;" parent="1" source="ZDk2f_s6jxiF1c_y5Mfk-93" target="ZDk2f_s6jxiF1c_y5Mfk-97" edge="1">
          <mxGeometry relative="1" as="geometry" />
        </mxCell>
        <mxCell id="ZDk2f_s6jxiF1c_y5Mfk-100" style="edgeStyle=orthogonalEdgeStyle;rounded=0;orthogonalLoop=1;jettySize=auto;html=1;entryX=0;entryY=0.5;entryDx=0;entryDy=0;endArrow=classicThin;endFill=1;" parent="1" source="ZDk2f_s6jxiF1c_y5Mfk-93" target="ZDk2f_s6jxiF1c_y5Mfk-99" edge="1">
          <mxGeometry relative="1" as="geometry">
            <Array as="points">
              <mxPoint x="660" y="445" />
              <mxPoint x="660" y="445" />
            </Array>
          </mxGeometry>
        </mxCell>
        <mxCell id="ZDk2f_s6jxiF1c_y5Mfk-93" value="判断是否存在?" style="rhombus;whiteSpace=wrap;html=1;" parent="1" vertex="1">
          <mxGeometry x="610" y="370" width="80" height="80" as="geometry" />
        </mxCell>
        <mxCell id="ZDk2f_s6jxiF1c_y5Mfk-103" style="edgeStyle=orthogonalEdgeStyle;rounded=0;orthogonalLoop=1;jettySize=auto;html=1;entryX=0;entryY=0.5;entryDx=0;entryDy=0;endArrow=classicThin;endFill=1;" parent="1" source="ZDk2f_s6jxiF1c_y5Mfk-94" target="ZDk2f_s6jxiF1c_y5Mfk-101" edge="1">
          <mxGeometry relative="1" as="geometry" />
        </mxCell>
        <mxCell id="ZDk2f_s6jxiF1c_y5Mfk-104" style="edgeStyle=orthogonalEdgeStyle;rounded=0;orthogonalLoop=1;jettySize=auto;html=1;entryX=0;entryY=0.5;entryDx=0;entryDy=0;endArrow=classicThin;endFill=1;" parent="1" source="ZDk2f_s6jxiF1c_y5Mfk-94" target="ZDk2f_s6jxiF1c_y5Mfk-102" edge="1">
          <mxGeometry relative="1" as="geometry">
            <Array as="points">
              <mxPoint x="660" y="545" />
              <mxPoint x="660" y="545" />
            </Array>
          </mxGeometry>
        </mxCell>
        <mxCell id="ZDk2f_s6jxiF1c_y5Mfk-94" value="判断是否存在?" style="rhombus;whiteSpace=wrap;html=1;" parent="1" vertex="1">
          <mxGeometry x="615" y="465" width="70" height="75" as="geometry" />
        </mxCell>
        <mxCell id="ZDk2f_s6jxiF1c_y5Mfk-97" value="添加成功，显示所在ID" style="rounded=0;whiteSpace=wrap;html=1;" parent="1" vertex="1">
          <mxGeometry x="750" y="380" width="80" height="30" as="geometry" />
        </mxCell>
        <mxCell id="ZDk2f_s6jxiF1c_y5Mfk-99" value="显示字符已存在和ID" style="rounded=0;whiteSpace=wrap;html=1;" parent="1" vertex="1">
          <mxGeometry x="750" y="430" width="80" height="30" as="geometry" />
        </mxCell>
        <mxCell id="ZDk2f_s6jxiF1c_y5Mfk-101" value="显示字符存在和ID" style="rounded=0;whiteSpace=wrap;html=1;" parent="1" vertex="1">
          <mxGeometry x="750" y="485" width="80" height="30" as="geometry" />
        </mxCell>
        <mxCell id="ZDk2f_s6jxiF1c_y5Mfk-102" value="显示字符不存在" style="rounded=0;whiteSpace=wrap;html=1;" parent="1" vertex="1">
          <mxGeometry x="750" y="530" width="80" height="30" as="geometry" />
        </mxCell>
        <mxCell id="ZDk2f_s6jxiF1c_y5Mfk-105" value="N" style="text;html=1;strokeColor=none;fillColor=none;align=center;verticalAlign=middle;whiteSpace=wrap;rounded=0;" parent="1" vertex="1">
          <mxGeometry x="690" y="385" width="40" height="20" as="geometry" />
        </mxCell>
        <mxCell id="ZDk2f_s6jxiF1c_y5Mfk-106" value="Y" style="text;html=1;strokeColor=none;fillColor=none;align=center;verticalAlign=middle;whiteSpace=wrap;rounded=0;" parent="1" vertex="1">
          <mxGeometry x="670" y="425" width="40" height="20" as="geometry" />
        </mxCell>
        <mxCell id="ZDk2f_s6jxiF1c_y5Mfk-109" value="Y" style="text;html=1;strokeColor=none;fillColor=none;align=center;verticalAlign=middle;whiteSpace=wrap;rounded=0;" parent="1" vertex="1">
          <mxGeometry x="685" y="490" width="40" height="20" as="geometry" />
        </mxCell>
        <mxCell id="ZDk2f_s6jxiF1c_y5Mfk-110" value="N" style="text;html=1;strokeColor=none;fillColor=none;align=center;verticalAlign=middle;whiteSpace=wrap;rounded=0;" parent="1" vertex="1">
          <mxGeometry x="670" y="525" width="40" height="20" as="geometry" />
        </mxCell>
        <mxCell id="ZDk2f_s6jxiF1c_y5Mfk-113" value="&lt;font style=&quot;font-size: 14px&quot;&gt;输入ID&lt;/font&gt;" style="text;html=1;strokeColor=none;fillColor=none;align=center;verticalAlign=middle;whiteSpace=wrap;rounded=0;" parent="1" vertex="1">
          <mxGeometry x="410" y="515" width="40" height="20" as="geometry" />
        </mxCell>
        <mxCell id="ZDk2f_s6jxiF1c_y5Mfk-119" style="edgeStyle=orthogonalEdgeStyle;rounded=0;orthogonalLoop=1;jettySize=auto;html=1;entryX=0;entryY=0.5;entryDx=0;entryDy=0;endArrow=classicThin;endFill=1;" parent="1" source="ZDk2f_s6jxiF1c_y5Mfk-114" target="ZDk2f_s6jxiF1c_y5Mfk-118" edge="1">
          <mxGeometry relative="1" as="geometry" />
        </mxCell>
        <mxCell id="ZDk2f_s6jxiF1c_y5Mfk-120" value="&lt;font style=&quot;font-size: 14px&quot;&gt;点击词法分析&lt;/font&gt;" style="edgeLabel;html=1;align=center;verticalAlign=middle;resizable=0;points=[];" parent="ZDk2f_s6jxiF1c_y5Mfk-119" vertex="1" connectable="0">
          <mxGeometry x="-0.3217" y="2" relative="1" as="geometry">
            <mxPoint as="offset" />
          </mxGeometry>
        </mxCell>
        <mxCell id="ZDk2f_s6jxiF1c_y5Mfk-114" value="显示源文件" style="rounded=0;whiteSpace=wrap;html=1;" parent="1" vertex="1">
          <mxGeometry x="410" y="590" width="100" height="40" as="geometry" />
        </mxCell>
        <mxCell id="ZDk2f_s6jxiF1c_y5Mfk-118" value="显示词法分析结果" style="rounded=0;whiteSpace=wrap;html=1;" parent="1" vertex="1">
          <mxGeometry x="730" y="590" width="100" height="40" as="geometry" />
        </mxCell>
        <mxCell id="ZDk2f_s6jxiF1c_y5Mfk-64" value="Y" style="text;html=1;strokeColor=none;fillColor=none;align=center;verticalAlign=middle;whiteSpace=wrap;rounded=0;" parent="1" vertex="1">
          <mxGeometry x="685" y="240" width="40" height="20" as="geometry" />
        </mxCell>
        <mxCell id="hr_gG3zSbtiE6pb-FCmn-9" style="edgeStyle=orthogonalEdgeStyle;rounded=0;orthogonalLoop=1;jettySize=auto;html=1;exitX=0.5;exitY=1;exitDx=0;exitDy=0;endArrow=classicThin;endFill=1;" edge="1" parent="1" source="ZDk2f_s6jxiF1c_y5Mfk-69" target="ZDk2f_s6jxiF1c_y5Mfk-69">
          <mxGeometry relative="1" as="geometry" />
        </mxCell>
      </root>
    </mxGraphModel>
  </diagram>
</mxfile>
